<svg width="100" height="91" viewBox="0 0 100 91" fill="none" xmlns="http://www.w3.org/2000/svg">
<path d="M76.6706 58.3797C77.3003 59.39 78.2993 60.1149 79.4552 60.4C80.6112 60.6851 81.8327 60.5081 82.8601 59.9064C93.5385 53.5067 104.098 42.2796 98.4024 22.8792C92.35 2.30848 72.1907 0.173708 69.9828 0C69.8639 0 69.7497 0 69.6308 0L17.6875 0.0228508C16.8603 0.023554 16.0488 0.248706 15.3395 0.674307C14.6301 1.09991 14.0496 1.71 13.6597 2.43956C13.2698 3.16913 13.0852 3.99082 13.1256 4.81705C13.1659 5.64327 13.4297 6.44305 13.8888 7.13117L23.0679 20.845C23.4856 21.4694 24.0507 21.9812 24.7132 22.3352C25.3758 22.6892 26.1154 22.8745 26.8666 22.8746H68.5657C68.5657 22.8746 76.9311 22.3581 78.0785 30.4081C79.1482 37.8775 71.8845 40.5197 68.5474 41.0545C68.2521 41.1 67.9729 41.2188 67.7353 41.4001C67.4978 41.5814 67.3094 41.8193 67.1876 42.0921C67.0657 42.365 67.0142 42.664 67.0377 42.9619C67.0613 43.2598 67.1591 43.547 67.3223 43.7973L72.5564 51.8199L76.6706 58.3797Z" fill="#329EFF"/>
<path d="M43.4914 50.0828L68.1763 88.2071C68.5905 88.8477 69.1584 89.3744 69.8283 89.7393C70.4982 90.1042 71.2487 90.2956 72.0116 90.2962H84.4728C85.297 90.2969 86.106 90.0748 86.8143 89.6534C87.5225 89.2319 88.1037 88.6269 88.4962 87.9022C88.8888 87.1776 89.0781 86.3603 89.0442 85.5368C89.0103 84.7133 88.7544 83.9144 88.3036 83.2244L63.413 45.1001C62.9975 44.4642 62.4301 43.9419 61.7621 43.5803C61.094 43.2188 60.3464 43.0294 59.5868 43.0293H47.3267C46.505 43.0299 45.6987 43.252 44.9926 43.6721C44.2864 44.0923 43.7066 44.695 43.3141 45.4169C42.9216 46.1388 42.7309 46.9531 42.7621 47.7742C42.7933 48.5953 43.0452 49.3928 43.4914 50.0828V50.0828Z" fill="#329EFF"/>
<path d="M22.112 59.0651L41.3113 88.239C41.728 88.8717 42.2953 89.3909 42.9624 89.7499C43.6295 90.109 44.3753 90.2967 45.1329 90.296H57.5256C58.3528 90.2964 59.1647 90.0723 59.8746 89.6476C60.5845 89.2229 61.1659 88.6135 61.5567 87.8844C61.9476 87.1553 62.1332 86.3338 62.0939 85.5075C62.0546 84.6812 61.7918 83.881 61.3335 83.1923L41.9284 54.0184C41.5119 53.3909 40.9467 52.876 40.2832 52.5195C39.6197 52.163 38.8784 51.976 38.1251 51.9751H25.929C25.1031 51.9747 24.2926 52.198 23.5835 52.6214C22.8744 53.0447 22.2932 53.6522 21.9017 54.3794C21.5102 55.1066 21.323 55.9263 21.3601 56.7513C21.3971 57.5763 21.6569 58.3759 22.112 59.0651V59.0651Z" fill="#329EFF"/>
<path d="M0.787102 68.0615L14.4735 88.2848C14.8919 88.9039 15.4558 89.4109 16.1156 89.7616C16.7755 90.1122 17.5112 90.2958 18.2585 90.2962H30.5506C31.3828 90.2961 32.1992 90.0688 32.9117 89.6389C33.6243 89.209 34.2059 88.5928 34.594 87.8566C34.9821 87.1204 35.1618 86.2923 35.1139 85.4615C35.0659 84.6307 34.7921 83.8288 34.3219 83.1421L20.4664 62.9143C20.0467 62.3013 19.4839 61.7999 18.8268 61.4534C18.1697 61.107 17.438 60.9259 16.6951 60.9258H4.57668C3.74588 60.9248 2.93051 61.1502 2.21823 61.5779C1.50595 62.0055 0.923679 62.6192 0.534007 63.353C0.144334 64.0867 -0.0380022 64.9128 0.00659079 65.7424C0.0511837 66.572 0.321021 67.3738 0.787102 68.0615Z" fill="#329EFF"/>
</svg>
