<svg width="140" height="30" viewBox="0 0 140 30" fill="none" xmlns="http://www.w3.org/2000/svg">
<path d="M16.9551 29.3703L11.5459 20.5742C11.5252 20.5397 11.4958 20.5111 11.4607 20.4914C11.4256 20.4717 11.386 20.4614 11.3457 20.4617H6.62323C6.56078 20.4617 6.5009 20.4865 6.45674 20.5307C6.41258 20.5748 6.38777 20.6348 6.38777 20.6972V27.6056C6.38777 28.1035 6.19 28.581 5.83795 28.933C5.48591 29.2851 5.00843 29.4828 4.51056 29.4828H0.23417C0.203309 29.4828 0.172761 29.4767 0.144266 29.4648C0.11577 29.453 0.0898876 29.4357 0.0681265 29.4138C0.0463654 29.3919 0.029148 29.3659 0.0174575 29.3373C0.00576705 29.3088 -0.000168756 29.2782 3.6507e-06 29.2473V2.75442C3.6507e-06 2.5079 0.0485695 2.26384 0.142908 2.03608C0.237247 1.80833 0.375526 1.60135 0.549841 1.42703C0.724156 1.25272 0.931088 1.11442 1.15884 1.02009C1.3866 0.925747 1.63071 0.877197 1.87723 0.877197H11.5131C13.8992 0.877197 15.9583 1.28055 17.6903 2.08725C19.4223 2.89395 20.7449 4.03469 21.658 5.50942C22.5702 6.98416 23.0263 8.70442 23.0263 10.6702C23.0263 12.6359 22.5759 14.3496 21.675 15.8112C20.795 17.2236 19.5327 18.3576 18.0344 19.0816C18.0047 19.096 17.9783 19.1165 17.9571 19.1418C17.9359 19.1671 17.9203 19.1966 17.9113 19.2283C17.9023 19.2601 17.9001 19.2933 17.9048 19.326C17.9096 19.3587 17.9212 19.3899 17.9388 19.4178L24.1958 29.1218C24.2185 29.1573 24.2313 29.1983 24.2328 29.2404C24.2342 29.2826 24.2244 29.3243 24.2042 29.3614C24.184 29.3984 24.1542 29.4293 24.118 29.4509C24.0818 29.4725 24.0404 29.484 23.9983 29.4841H17.1539C17.1138 29.4842 17.0743 29.4737 17.0394 29.4537C17.0045 29.4338 16.9754 29.405 16.9551 29.3703V29.3703ZM6.38777 14.5763C6.38812 14.6385 6.41308 14.6981 6.45721 14.7419C6.50133 14.7858 6.56101 14.8105 6.62323 14.8105H11.2319C12.9395 14.8105 14.2673 14.4538 15.2153 13.7404C16.1632 13.027 16.6372 12.0036 16.6372 10.6702C16.6372 9.33582 16.1632 8.31197 15.2153 7.59859C14.2673 6.8852 12.9395 6.52802 11.2319 6.52715H6.62323C6.56089 6.52749 6.5012 6.55243 6.45711 6.59651C6.41303 6.6406 6.38812 6.70031 6.38777 6.76265V14.5763Z" fill="#329EFF"/>
<path d="M29.885 28.5891C28.2817 27.6886 26.9626 26.3573 26.0769 24.7458C25.1638 23.108 24.7073 21.2591 24.7073 19.1992C24.7073 17.1393 25.1638 15.2908 26.0769 13.6539C26.9626 12.0424 28.2817 10.711 29.885 9.81049C31.5106 8.88693 33.3534 8.4247 35.4133 8.42383C37.4732 8.42296 39.316 8.88519 40.9416 9.81049C42.544 10.7121 43.8628 12.0432 44.7497 13.6539C45.661 15.2917 46.1171 17.1401 46.118 19.1992C46.1183 19.7997 46.0807 20.3995 46.0055 20.9953C45.9979 21.0523 45.9698 21.1045 45.9264 21.1423C45.8831 21.1801 45.8275 21.2008 45.77 21.2006H30.9197C31.1535 22.3937 31.6685 23.3177 32.4647 23.9726C33.2609 24.6276 34.2438 24.9555 35.4133 24.9564C36.2245 24.9711 37.0304 24.8216 37.7824 24.5169C38.4173 24.2491 38.869 23.8964 39.1376 23.4586C39.1578 23.4231 39.1869 23.3936 39.222 23.373C39.2571 23.3523 39.297 23.3412 39.3378 23.3408H45.1735C45.21 23.3408 45.246 23.3493 45.2787 23.3656C45.3114 23.3819 45.3398 23.4056 45.3618 23.4347C45.3837 23.4639 45.3986 23.4978 45.4052 23.5338C45.4118 23.5697 45.4099 23.6066 45.3998 23.6417C45.0325 24.8278 44.3886 25.9097 43.5213 26.7983C42.5197 27.8203 41.3109 28.6161 39.9762 29.132C38.5234 29.7034 36.9743 29.9899 35.4133 29.9758C33.3534 29.9758 31.5106 29.5136 29.885 28.5891ZM39.7158 17.1637C39.7512 17.1638 39.7862 17.1559 39.8181 17.1406C39.85 17.1253 39.8781 17.103 39.9001 17.0753C39.9221 17.0476 39.9376 17.0152 39.9453 16.9807C39.9531 16.9461 39.9529 16.9103 39.9448 16.8759C39.6692 15.777 39.1647 14.9311 38.4312 14.338C37.6359 13.6944 36.6299 13.3726 35.4133 13.3726C34.1967 13.3726 33.2021 13.6944 32.4294 14.338C31.7177 14.9319 31.225 15.7779 30.9512 16.8759C30.943 16.9103 30.9428 16.9461 30.9506 16.9807C30.9583 17.0152 30.9738 17.0476 30.9958 17.0753C31.0179 17.103 31.0459 17.1253 31.0778 17.1406C31.1097 17.1559 31.1447 17.1638 31.1801 17.1637H39.7158Z" fill="#329EFF"/>
<path d="M52.6852 28.5891C51.1659 27.6669 49.9376 26.3347 49.1414 24.7458C48.298 23.108 47.8768 21.2591 47.8777 19.1992C47.8786 17.1393 48.2998 15.2908 49.1414 13.6539C49.9376 12.0649 51.1659 10.7328 52.6852 9.81049C54.2061 8.88693 55.9377 8.4247 57.8799 8.42383C60.5233 8.42383 62.489 9.28981 63.7771 11.0218V10.7929C63.7769 10.5463 63.8254 10.3021 63.9196 10.0743C64.0139 9.84647 64.1522 9.63947 64.3265 9.46512C64.5009 9.29077 64.7079 9.15251 64.9357 9.05824C65.1636 8.96396 65.4077 8.91549 65.6543 8.91567H69.7894C69.8516 8.91567 69.9113 8.94033 69.9554 8.9842C69.9996 9.02808 70.0245 9.08761 70.0249 9.14983V27.6067C70.0245 28.1047 69.8265 28.5822 69.4742 28.9342C69.122 29.2862 68.6443 29.4839 68.1464 29.4839H64.0113C63.9804 29.4839 63.9498 29.4778 63.9213 29.466C63.8928 29.4541 63.867 29.4368 63.8452 29.4149C63.8234 29.393 63.8062 29.367 63.7945 29.3385C63.7828 29.3099 63.7769 29.2793 63.7771 29.2485V28.0345C63.7775 27.9872 63.7636 27.9408 63.7373 27.9015C63.711 27.8621 63.6734 27.8316 63.6294 27.814C63.5855 27.7963 63.5373 27.7923 63.4911 27.8025C63.4448 27.8126 63.4027 27.8365 63.3702 27.871C62.09 29.2733 60.2586 29.9749 57.876 29.9758C55.9364 29.9758 54.2061 29.5136 52.6852 28.5891ZM62.5134 23.1132C63.4265 22.0954 63.8826 20.7908 63.8817 19.1992C63.8809 17.6076 63.4248 16.3033 62.5134 15.2864C61.6003 14.2687 60.3837 13.7594 58.8636 13.7585C57.3898 13.7585 56.2081 14.2678 55.3185 15.2864C54.429 16.3051 53.9842 17.6093 53.9842 19.1992C53.9842 20.7917 54.429 22.0963 55.3185 23.1132C56.2081 24.1301 57.3898 24.6389 58.8636 24.6398C60.3837 24.6398 61.6003 24.1309 62.5134 23.1132V23.1132Z" fill="#329EFF"/>
<path d="M78.2153 29.4834H74.0802C74.0494 29.4834 74.0188 29.4773 73.9903 29.4654C73.9618 29.4536 73.936 29.4363 73.9142 29.4144C73.8924 29.3925 73.8752 29.3665 73.8635 29.3379C73.8518 29.3094 73.8459 29.2788 73.8461 29.2479V2.10616C73.8461 1.54757 74.068 1.01188 74.4629 0.616906C74.8579 0.221928 75.3936 0 75.9522 0H79.8584C79.9206 -9.60232e-07 79.9803 0.0246615 80.0244 0.068538C80.0685 0.112415 80.0935 0.171943 80.0939 0.234166V27.6062C80.0935 28.1042 79.8954 28.5816 79.5432 28.9337C79.1909 29.2857 78.7133 29.4834 78.2153 29.4834V29.4834Z" fill="#329EFF"/>
<path d="M91.291 2.75442C91.2908 2.50786 91.3393 2.26366 91.4336 2.03583C91.5278 1.808 91.6661 1.601 91.8405 1.42665C92.0148 1.2523 92.2218 1.11404 92.4497 1.01977C92.6775 0.925489 92.9217 0.877026 93.1682 0.877198H102.277C104.734 0.877198 106.845 1.30975 108.612 2.17489C110.379 3.04002 111.731 4.25707 112.668 5.82599C113.603 7.39578 114.071 9.23246 114.071 11.336C114.071 13.4657 113.603 15.3202 112.668 16.8996C111.732 18.479 110.38 19.6999 108.612 20.5624C106.845 21.4284 104.733 21.8615 102.277 21.8615H97.9129C97.8508 21.8615 97.7913 21.8861 97.7474 21.9301C97.7034 21.974 97.6788 22.0335 97.6788 22.0956V27.6004C97.6784 28.0984 97.4804 28.5758 97.1281 28.9278C96.7759 29.2798 96.2982 29.4776 95.8003 29.4776H91.5252C91.4943 29.4776 91.4638 29.4715 91.4353 29.4597C91.4068 29.4478 91.3809 29.4304 91.3591 29.4086C91.3374 29.3867 91.3201 29.3607 91.3085 29.3321C91.2968 29.3035 91.2908 29.273 91.291 29.2421V2.75442ZM101.996 16.2154C103.797 16.2154 105.195 15.7942 106.19 14.9518C107.185 14.1093 107.682 12.904 107.682 11.336C107.682 9.76619 107.185 8.57316 106.19 7.75687C105.195 6.94058 103.797 6.53063 101.996 6.52715H97.9129C97.8507 6.52749 97.7912 6.55246 97.7473 6.59658C97.7034 6.6407 97.6788 6.70043 97.6788 6.76265V15.98C97.6788 16.0422 97.7034 16.1019 97.7473 16.146C97.7912 16.1901 97.8507 16.2151 97.9129 16.2154H101.996Z" fill="#329EFF"/>
<path d="M138.129 6.52714H130.934C130.872 6.52749 130.812 6.55243 130.768 6.59651C130.724 6.6406 130.699 6.70031 130.699 6.76265V27.6056C130.699 28.1035 130.501 28.581 130.149 28.933C129.797 29.2851 129.32 29.4828 128.822 29.4828H124.547C124.516 29.4828 124.485 29.4767 124.457 29.4649C124.428 29.4531 124.402 29.4357 124.38 29.4139C124.358 29.392 124.341 29.366 124.329 29.3375C124.317 29.3089 124.311 29.2783 124.311 29.2473V6.76265C124.311 6.70043 124.287 6.6407 124.243 6.59658C124.199 6.55246 124.139 6.52749 124.077 6.52714H115.244C115.182 6.52714 115.123 6.50252 115.079 6.45861C115.035 6.41469 115.01 6.35515 115.01 6.29304V2.98335C115.01 2.42477 115.232 1.88908 115.627 1.4941C116.022 1.09913 116.558 0.877197 117.116 0.877197H139.766C139.828 0.877197 139.887 0.901885 139.931 0.945799C139.975 0.989713 140 1.04926 140 1.11136V4.64998C140 5.14682 139.804 5.62346 139.453 5.97539C139.102 6.32732 138.626 6.52576 138.129 6.52714V6.52714Z" fill="#329EFF"/>
</svg>
