<svg width="35" height="30" viewBox="0 0 35 30" fill="none" xmlns="http://www.w3.org/2000/svg">
<path fill-rule="evenodd" clip-rule="evenodd" d="M10.3197 7.77288L14.2976 13.0663L6.0542 14.0085L8.70609 7.94645C8.06814 7.69852 7.61782 7.07868 7.61782 6.35968C7.61782 5.41753 8.39337 4.64893 9.34405 4.64893C10.2947 4.64893 11.0703 5.41753 11.0703 6.35968C11.0703 6.95472 10.7701 7.46296 10.3197 7.77288ZM26.2814 7.94645L28.9333 14.0085L20.6899 13.0663L24.6677 7.77288C24.2174 7.46296 23.9172 6.94232 23.9172 6.35968C23.9172 5.41753 24.6928 4.64893 25.6434 4.64893C26.5941 4.64893 27.3697 5.41753 27.3697 6.35968C27.3697 7.07868 26.9193 7.69852 26.2814 7.94645Z" fill="#287FCD"/>
<path d="M35 7.54958C35 6.60743 34.2244 5.83883 33.2738 5.83883C32.3231 5.83883 31.5475 6.60743 31.5475 7.54958C31.5475 7.89669 31.6601 8.23141 31.8352 8.49174C31.56 8.49174 31.2848 8.55373 31.0222 8.72728L26.1061 11.8761C25.4557 12.2851 24.6051 12.1364 24.1422 11.5165L18.6758 4.16531C18.6383 4.10333 18.5883 4.05373 18.5382 4.00415C19.2012 3.64464 19.6515 2.93802 19.6515 2.13223C19.6515 0.954547 18.6883 0 17.5 0C16.3117 0 15.3485 0.954547 15.3485 2.13223C15.3485 2.93802 15.7988 3.64464 16.4618 4.00415C16.4117 4.05373 16.3617 4.10333 16.3242 4.16531L10.8578 11.5165C10.4074 12.1364 9.54432 12.2851 8.89385 11.8761L3.97784 8.72728C3.71515 8.55373 3.43996 8.49174 3.16476 8.49174C3.35239 8.21902 3.45247 7.89669 3.45247 7.54958C3.45247 6.60743 2.67691 5.83883 1.72623 5.83883C0.775553 5.83883 0 6.60743 0 7.54958C0 8.49173 0.775553 9.26033 1.72623 9.26033C1.78878 9.26033 1.85132 9.26032 1.90136 9.24792C1.73874 9.53305 1.6762 9.86777 1.75125 10.2273L5.00357 26.3058C5.24124 27.4587 6.26698 28.2893 7.45532 28.2893H10.0447H17.5H24.9553H27.5447C28.733 28.2893 29.7588 27.4587 29.9964 26.3058L33.2487 10.2273C33.3238 9.86777 33.2488 9.52065 33.0986 9.24792C33.1612 9.24792 33.2237 9.26033 33.2738 9.26033C34.2244 9.26033 35 8.49173 35 7.54958Z" fill="url(#paint0_linear_349_1359)"/>
<path d="M20.2924 11.0546H16.8601L13.3725 13.1955V16.3723L16.4872 14.4938H16.5701V25.1982H20.2924V11.0546Z" fill="#0D2C48"/>
<defs>
<linearGradient id="paint0_linear_349_1359" x1="17.5" y1="0" x2="17.5" y2="28.2893" gradientUnits="userSpaceOnUse">
<stop stop-color="#7BC1FF"/>
<stop offset="1" stop-color="#329EFF"/>
</linearGradient>
</defs>
</svg>
