<svg xmlns="http://www.w3.org/2000/svg" width="247" height="174" fill="none"><path fill="#FAA037" d="M57.013 93.162a2.86 2.86 0 0 1-3.913-1.049l-5.97-10.371a16.566 16.566 0 0 0-10.133-7.793 2.869 2.869 0 0 1-2.024-3.516 2.868 2.868 0 0 1 3.51-2.033c5.785 1.55 10.62 5.268 13.612 10.467l5.97 10.371c.79 1.373.319 3.13-1.052 3.924Z"/><path fill="#FFD241" d="m23.14 63.04-4.963 2.875-4.293-7.458a2.878 2.878 0 0 1 1.051-3.924 2.859 2.859 0 0 1 3.912 1.05l4.293 7.457ZM29.249 79.398a2.859 2.859 0 0 1-3.912-1.049l-4.293-7.458 4.963-2.874 4.293 7.458c.79 1.373.32 3.13-1.051 3.923ZM26 68.017l-2.86-4.97 7.442-4.31a2.858 2.858 0 0 1 3.91 1.048 2.876 2.876 0 0 1-1.05 3.922L26 68.016ZM9.692 74.146a2.877 2.877 0 0 1 1.05-3.922l7.442-4.31 2.86 4.97-7.442 4.31a2.858 2.858 0 0 1-3.91-1.048Z"/><path fill="#FAA037" d="M189.988 94.231a2.877 2.877 0 0 1-1.051-3.923l5.969-10.372c2.992-5.199 7.826-8.916 13.612-10.466 1.528-.41 3.099.5 3.51 2.033a2.87 2.87 0 0 1-2.024 3.516 16.567 16.567 0 0 0-10.134 7.792l-5.97 10.371a2.858 2.858 0 0 1-3.912 1.05Z"/><path fill="#FFD241" d="m223.86 64.11 4.963 2.875 4.293-7.458a2.878 2.878 0 0 0-1.051-3.923 2.86 2.86 0 0 0-3.913 1.049l-4.292 7.458ZM217.751 80.468a2.86 2.86 0 0 0 3.913-1.048l4.292-7.458-4.963-2.875-4.293 7.458a2.878 2.878 0 0 0 1.051 3.923ZM221 69.087l2.86-4.97-7.442-4.31a2.856 2.856 0 0 0-3.91 1.048 2.876 2.876 0 0 0 1.05 3.922l7.442 4.31ZM237.309 75.217a2.876 2.876 0 0 0-1.051-3.922l-7.441-4.31-2.861 4.97 7.442 4.31a2.858 2.858 0 0 0 3.911-1.048ZM219.49 8.528l4.963 2.874 2.861-4.971c.79-1.373.32-3.13-1.051-3.923a2.858 2.858 0 0 0-3.912 1.048l-2.861 4.972ZM214.812 22.4a2.858 2.858 0 0 0 3.912-1.05l2.862-4.971-4.963-2.875-2.861 4.972a2.877 2.877 0 0 0 1.05 3.923ZM216.629 13.505l2.861-4.97-4.962-2.874a2.858 2.858 0 0 0-3.911 1.048 2.877 2.877 0 0 0 1.051 3.922l4.961 2.874ZM230.459 18.198a2.878 2.878 0 0 0-1.051-3.922l-4.961-2.873-2.861 4.97 4.962 2.873a2.858 2.858 0 0 0 3.911-1.048Z"/><path fill="#FAA037" d="M200.497 47.267a2.878 2.878 0 0 1-1.052-3.924l8.587-14.918a2.86 2.86 0 0 1 3.913-1.049 2.878 2.878 0 0 1 1.052 3.924l-8.587 14.918a2.86 2.86 0 0 1-3.913 1.049ZM194.768 57.215a2.878 2.878 0 0 1-1.051-3.923l1.431-2.486a2.858 2.858 0 0 1 3.912-1.049 2.878 2.878 0 0 1 1.051 3.923l-1.431 2.486a2.858 2.858 0 0 1-3.912 1.049Z"/><path fill="#FFD241" d="m22.547 10.332 4.963-2.874-2.86-4.972a2.858 2.858 0 0 0-3.913-1.049 2.878 2.878 0 0 0-1.05 3.923l2.86 4.972ZM32.188 21.329a2.878 2.878 0 0 0 1.05-3.923l-2.86-4.972-4.964 2.875 2.862 4.971a2.858 2.858 0 0 0 3.912 1.049ZM25.414 15.303l-2.86-4.97-4.962 2.873a2.877 2.877 0 0 0-1.05 3.922 2.858 2.858 0 0 0 3.91 1.049l4.962-2.874ZM36.383 5.64a2.858 2.858 0 0 0-3.91-1.05L27.51 7.465l2.86 4.97 4.962-2.873a2.877 2.877 0 0 0 1.05-3.922Z"/><path fill="#FAA037" d="M46.504 46.197a2.86 2.86 0 0 1-3.913-1.05L34.004 30.23a2.878 2.878 0 0 1 1.052-3.924 2.86 2.86 0 0 1 3.913 1.049l8.587 14.918c.79 1.373.32 3.13-1.052 3.923ZM53.239 57.214a2.858 2.858 0 0 1-3.912-1.048l-1.431-2.486a2.877 2.877 0 0 1 1.05-3.923 2.858 2.858 0 0 1 3.913 1.049l1.43 2.485c.79 1.373.32 3.13-1.05 3.923ZM235.316 44.217a5.716 5.716 0 0 0 7.823-2.097 5.755 5.755 0 0 0-2.101-7.845 5.716 5.716 0 0 0-7.823 2.097 5.755 5.755 0 0 0 2.101 7.845ZM11.684 43.146a5.754 5.754 0 0 0 2.101-7.845 5.716 5.716 0 0 0-7.823-2.097 5.754 5.754 0 0 0-2.101 7.845 5.716 5.716 0 0 0 7.823 2.097Z"/><path fill="#414141" d="m167.929 65.726 4.26-7.402a8.511 8.511 0 0 1 11.649-3.122l9.852 5.706c4.081 2.364 5.482 7.594 3.129 11.682l-4.26 7.402-24.63-14.266Z"/><path fill="#C5D3DD" d="m175.306 70.013-19.987 34.725 9.858 5.709 19.987-34.725-9.858-5.709Z"/><path fill="#B6C4CF" d="m175.308 70.013-10.039 17.443 9.856 5.708 10.038-17.442-9.855-5.709Z"/><path fill="#575757" d="m175.397 109.798-4.259 7.401a8.51 8.51 0 0 1-11.649 3.122l-9.853-5.707c-4.081-2.364-5.482-7.594-3.13-11.682l4.26-7.401 24.631 14.267Z"/><path fill="#5A5A5A" d="M197.478 82.849a5.673 5.673 0 0 1-7.765 2.08l-24.627-14.263A5.71 5.71 0 0 1 163 62.881a5.673 5.673 0 0 1 7.765-2.08l24.627 14.262a5.71 5.71 0 0 1 2.086 7.785Z"/><path fill="#6E6E6E" d="M180.324 112.641a5.673 5.673 0 0 1-7.764 2.082l-24.627-14.262a5.711 5.711 0 0 1-2.086-7.786 5.674 5.674 0 0 1 7.765-2.081l24.627 14.261a5.71 5.71 0 0 1 2.085 7.786Z"/><path fill="#FFD241" d="M139.035 44.804c1.008-2.159 1.558-4.502 1.558-6.891 0-8.362-6.551-15.989-16.035-15.989s-16.035 7.627-16.035 15.989c0 2.39.549 4.732 1.557 6.892-6.689 4.686-10.873 12.757-10.873 20.98 0 7.306 3.314 14.243 8.812 19.068 1.191 1.056 2.748 1.608 4.443 1.608H136.653c1.695 0 3.253-.552 4.444-1.608a25.365 25.365 0 0 0 8.659-19.067c0-8.224-4.032-16.295-10.721-20.982Zm-14.477.093c-3.803 0-6.872-3.079-6.872-6.892 0-3.814 3.069-6.892 6.872-6.892s6.872 3.078 6.872 6.892c0 3.813-3.069 6.892-6.872 6.892Z"/><path fill="#DBB437" d="M139.035 44.804c1.008-2.159 1.558-4.502 1.558-6.891 0-8.362-6.552-15.989-16.036-15.989v9.19c3.803 0 6.873 3.077 6.873 6.89 0 3.814-3.07 6.893-6.873 6.893V86.46h12.096c1.695 0 3.252-.552 4.443-1.608a25.366 25.366 0 0 0 8.66-19.067c0-8.224-4.032-16.295-10.721-20.982Z"/><path fill="#A5C3DC" d="M81.901 79.366 66.45 87.938a2.056 2.056 0 0 1-2.798-.806l-4.266-7.74a2.07 2.07 0 0 1 .807-2.806l15.452-8.572a2.056 2.056 0 0 1 2.8.806l4.265 7.74c.55.997.188 2.254-.808 2.806Z"/><path fill="#92ADC4" d="m82.71 76.562-4.267-7.741a2.056 2.056 0 0 0-2.8-.807l-7.728 4.287 6.259 11.355L81.9 79.37a2.07 2.07 0 0 0 .808-2.807Z"/><path fill="#9B9FAA" d="m63.834 69.162-5.923 3.286a2.056 2.056 0 0 1-2.8-.806l-3.27-5.934a2.07 2.07 0 0 1 .807-2.808l5.924-3.286a2.056 2.056 0 0 1 2.8.806l3.27 5.934a2.07 2.07 0 0 1-.808 2.808Z"/><path fill="#C8CAD2" d="M77.223 61.733a2.055 2.055 0 0 1-2.799-.806 6.758 6.758 0 0 0-9.192-2.647l-15.45 8.571a2.056 2.056 0 0 1-2.799-.806 2.069 2.069 0 0 1 .808-2.806l15.45-8.571c5.254-2.914 11.888-1.004 14.79 4.259.55.997.188 2.254-.808 2.806Z"/><path fill="#9B9FAA" d="M74.422 60.93a2.056 2.056 0 0 0 2.8.806 2.07 2.07 0 0 0 .807-2.807c-2.901-5.264-9.537-7.175-14.792-4.26l-3.863 2.144 1.991 3.613 3.864-2.144a6.76 6.76 0 0 1 9.193 2.648Z"/><path fill="#D7E6F0" d="M104.98 112.069 81.795 124.93a2.056 2.056 0 0 1-2.8-.806L61.928 93.158a6.5 6.5 0 0 1 2.538-8.822l15.457-8.575a6.457 6.457 0 0 1 8.797 2.534l17.068 30.966a2.07 2.07 0 0 1-.808 2.808Z"/><path fill="#A5C3DC" d="M105.787 109.268 88.715 78.296a6.459 6.459 0 0 0-8.8-2.534l-7.73 4.288 21.199 38.458 11.595-6.432a2.07 2.07 0 0 0 .808-2.808Z"/><path fill="#F5F5FA" d="M81.493 69.479 58.317 82.335a2.055 2.055 0 0 1-2.799-.806l-4.265-7.739a2.069 2.069 0 0 1 .808-2.806l23.175-12.856a2.055 2.055 0 0 1 2.799.806l4.265 7.738c.55.998.189 2.254-.807 2.807Z"/><path fill="#C8CAD2" d="m82.3 66.674-4.266-7.74a2.056 2.056 0 0 0-2.8-.806l-11.59 6.43 6.258 11.353 11.59-6.43a2.07 2.07 0 0 0 .808-2.807Z"/><path fill="#77BFFF" d="M83.784 101.079a6.468 6.468 0 0 1-8.796-2.533c-2.099-3.807.32-9.22.602-9.824a2.063 2.063 0 0 1 2.12-1.176c.66.082 6.514.905 8.613 4.712 1.725 3.13.586 7.088-2.539 8.821Z"/><path fill="#6BABE4" d="M86.322 92.26c-2.099-3.808-7.955-4.632-8.616-4.713a2.055 2.055 0 0 0-1.25.243l7.327 13.293c3.126-1.734 4.265-5.692 2.539-8.823Z"/><path fill="#C8733C" d="M181.722 174.001H67.185c-6.326 0-11.454-5.143-11.454-11.486V99.341h137.445v63.174c0 6.343-5.128 11.486-11.454 11.486Z"/><path fill="#F0915A" d="M113 174.001H67.185c-6.326 0-11.454-5.143-11.454-11.486V99.341h68.723v63.174c0 6.343-5.128 11.486-11.454 11.486Z"/><path fill="#FAB991" d="M124.454 99.341c-6.326 0-11.454 5.143-11.454 11.486v11.486a2.868 2.868 0 0 1-2.863 2.872H47.141a2.868 2.868 0 0 1-2.863-2.872v-11.486c0-6.343 5.128-11.486 11.453-11.486h68.723Z"/><path fill="#F0915A" d="M124.453 99.341c6.326 0 11.454 5.143 11.454 11.486v11.486a2.868 2.868 0 0 0 2.864 2.872h62.995a2.869 2.869 0 0 0 2.864-2.872v-11.486c0-6.343-5.128-11.486-11.454-11.486h-68.723Z"/></svg>